<svg width="30" height="30" viewBox="0 0 30 30" fill="none" xmlns="http://www.w3.org/2000/svg">
<path d="M28.3253 16.8516C29.2108 16.8516 29.9921 16.0312 29.9921 14.9707C30.0442 14.4434 29.8359 13.9746 29.4192 13.5645L16.1212 0.410156C15.8086 0.117188 15.3919 0 15.0273 0C14.6627 0 14.246 0.0585938 13.8814 0.46875L0.520878 13.5645C0.156263 13.9746 0 14.4434 0 14.9707C0 16.0254 0.729229 16.8516 1.66681 16.8516H3.33362V26.25C3.33362 28.3184 4.82854 30 6.66723 30H23.3562C25.2053 30 26.7002 28.3125 26.6898 26.2324L26.6533 16.8457H28.3201L28.3253 16.8516ZM13.3345 12.1875C13.3345 11.6719 13.7095 11.25 14.1679 11.25H15.8347C16.2931 11.25 16.6681 11.6719 16.6681 12.1875V15H19.1683C19.6267 15 20.0017 15.4219 20.0017 15.9375V17.8125C20.0017 18.3281 19.6267 18.75 19.1683 18.75H16.6681V21.5625C16.6681 22.0781 16.2931 22.5 15.8347 22.5H14.1679C13.7095 22.5 13.3345 22.0781 13.3345 21.5625V18.75H10.8343C10.3759 18.75 10.0009 18.3281 10.0009 17.8125V15.9375C10.0009 15.4219 10.3759 15 10.8343 15H13.3345V12.1875Z" fill="#888888"/>
</svg>
